<svg width="32" height="32" viewBox="0 0 32 32" fill="none" xmlns="http://www.w3.org/2000/svg">
<path fill-rule="evenodd" clip-rule="evenodd" d="M13.2034 16.0866V26.7229C13.2034 26.8757 13.3246 27 13.4746 27H17.3396C17.4887 27 17.6103 26.8757 17.6103 26.7229V15.9134H20.4124C20.553 15.9134 20.6704 15.803 20.6823 15.6597L20.9517 12.4028C20.9648 12.2413 20.8403 12.1023 20.6814 12.1023H17.6103V9.79142C17.6103 9.24975 18.0399 8.81114 18.5699 8.81114H20.7293C20.8788 8.81114 21 8.68687 21 8.53403V5.27711C21 5.12427 20.8788 5 20.7293 5H17.0803C14.9396 5 13.2034 6.77394 13.2034 8.96225V12.1023H11.2711C11.1216 12.1023 11 12.2261 11 12.3794V15.6363C11 15.7891 11.1216 15.9134 11.2711 15.9134H13.2034V16.0866Z" fill="white"/>
</svg>
