<svg width="16" height="16" viewBox="0 0 16 16" fill="none" xmlns="http://www.w3.org/2000/svg">
<g clip-path="url(#clip0_3393_14203)">
<path d="M8.73967 3.81337L8.35967 5.74004C8.27967 6.13337 8.38634 6.54004 8.63967 6.84671C8.89301 7.15337 9.26634 7.33337 9.66634 7.33337H13.333V8.05337L11.6197 12H6.22634C6.10634 12 5.99967 11.8934 5.99967 11.7734V6.54671L8.73967 3.81337ZM9.33301 1.33337L5.05967 5.60671C4.80634 5.86004 4.66634 6.20004 4.66634 6.55337V11.7734C4.66634 12.6334 5.36634 13.3334 6.22634 13.3334H11.6263C12.0997 13.3334 12.533 13.0867 12.773 12.6867L14.553 8.58671C14.6263 8.42004 14.6663 8.24004 14.6663 8.05337V7.33337C14.6663 6.60004 14.0663 6.00004 13.333 6.00004H9.66634L10.2797 2.90004C10.313 2.75337 10.293 2.59337 10.2263 2.46004C10.073 2.16004 9.87967 1.88671 9.63968 1.64671L9.33301 1.33337ZM2.66634 6.00004H1.33301V13.3334H2.66634C3.03301 13.3334 3.33301 13.0334 3.33301 12.6667V6.66671C3.33301 6.30004 3.03301 6.00004 2.66634 6.00004Z" fill="white"/>
</g>
<defs>
<clipPath id="clip0_3393_14203">
<rect width="16" height="16" fill="white"/>
</clipPath>
</defs>
</svg>
