<svg width="32" height="32" viewBox="0 0 32 32" fill="none" xmlns="http://www.w3.org/2000/svg">
<path fill-rule="evenodd" clip-rule="evenodd" d="M24.9245 20.3739C24.9245 22.8873 22.8868 24.925 20.373 24.925H11.6269C9.11312 24.925 7.07543 22.8873 7.07543 20.3739V11.627C7.07543 9.11363 9.11312 7.07593 11.6269 7.07593H20.373C22.8868 7.07593 24.9245 9.11363 24.9245 11.627V20.3739ZM27 11.6266C27 7.96668 24.0333 5 20.373 5H11.627C7.96668 5 5 7.96668 5 11.6266V20.3734C5 24.0329 7.96668 27 11.627 27H20.373C24.0333 27 27 24.0329 27 20.3734V11.6266ZM16.0372 19.6217C14.1182 19.6217 12.557 18.0605 12.557 16.1415C12.557 14.2225 14.1182 12.6614 16.0372 12.6614C17.9561 12.6614 19.5173 14.2225 19.5173 16.1415C19.5173 18.0605 17.9561 19.6217 16.0372 19.6217ZM16.0371 10.709C13.0413 10.709 10.6039 13.1464 10.6039 16.1422C10.6039 19.1379 13.0413 21.5753 16.0371 21.5753C19.0328 21.5753 21.4702 19.1379 21.4702 16.1422C21.4702 13.1464 19.0328 10.709 16.0371 10.709ZM21.7872 9.05054C21.0732 9.05054 20.4937 9.62959 20.4937 10.3436C20.4937 11.0579 21.0732 11.637 21.7872 11.637C22.5015 11.637 23.0806 11.0579 23.0806 10.3436C23.0806 9.62959 22.5015 9.05054 21.7872 9.05054Z" fill="white"/>
</svg>
