<svg width="76" height="51" viewBox="0 0 76 51" fill="none" xmlns="http://www.w3.org/2000/svg">
<path d="M32.6466 8.67223C32.9724 7.63998 33.795 8.16718 33.795 8.16718C33.795 8.16718 35.9278 9.74657 41.7771 13.3639C47.6264 16.9812 54.918 11.9617 54.918 11.9617L37.5981 0C30.0011 7.82605 20.2804 10.6326 20.2804 10.6326L20.3077 10.6437L42.4425 25.7332C42.1166 26.7654 41.294 26.2382 41.294 26.2382C41.294 26.2382 39.1612 24.6588 33.3119 21.0415C27.4649 17.4242 20.1755 22.4437 20.1755 22.4437L37.4932 34.4054C45.088 26.5793 54.811 23.7728 54.811 23.7728L54.7836 23.7617L32.6466 8.67223Z" fill="white"/>
<path d="M0.00494792 46.9097L5.78906 46.9392C5.88802 47.4793 5.73464 47.4793 6.03646 47.7591C6.51146 48.201 7.25365 48.2992 7.87214 48.1912C8.38177 48.1028 9.16849 47.9506 9.20312 47.3222C9.24271 46.6446 8.76771 46.404 8.17396 46.3304C7.3526 46.2224 6.52135 46.1929 5.7 46.0652C3.58724 45.7215 2.46406 45.5694 1.56354 44.9998C0.658073 44.4303 0.578906 43.1881 0.578906 42.3043C0.578906 41.725 0.811458 41.175 1.27656 40.6595C1.74167 40.144 2.43932 39.7414 3.36953 39.4419C4.29974 39.1473 5.5763 39 7.20417 39C9.19323 39 10.7122 39.27 11.7612 39.8003C12.8052 40.3355 13.4286 41.5286 13.6266 42.6971H8.70833C8.74297 42.6284 8.61432 42.3141 8.58958 42.2356C8.40156 41.558 7.74349 41.3616 7.11016 41.2242C6.59557 41.1112 6.00182 41.1014 5.53672 41.3862C5.25469 41.558 5.03203 41.7397 5.03203 41.9901C5.03203 42.1718 5.15078 42.3289 5.38333 42.4762C5.61094 42.6234 6.15026 42.7609 7.0013 42.8886C9.10912 43.2176 10.6133 43.5514 11.5237 43.8853C12.4341 44.2241 13.0971 44.6414 13.5128 45.1373C13.9284 45.6332 14.1362 46.1929 14.1362 46.8066C14.1362 47.5284 13.8591 48.1961 13.3049 48.8098C12.7508 49.4187 11.9789 49.8851 10.9893 50.1993C9.99479 50.5136 8.74792 50.6707 7.2388 50.6707C4.59167 50.6707 2.75104 50.3024 1.73177 49.561C0.7125 48.8197 0.133594 48.0488 0 46.9097H0.00494792Z" fill="white"/>
<path d="M23.4779 39.216H27.7529V47.1945C27.7529 48.8295 26.7286 49.9931 24.6802 50.6756C23.7302 50.9898 22.5922 50.9996 21.3057 50.9996C20.1529 50.9996 19.1138 51.0193 18.1589 50.7738C15.9026 49.8802 14.7745 48.6871 14.7745 47.1945V39.216H19.0792V46.0456C19.0792 47.2878 19.2474 48.2157 21.3057 48.2157C23.3641 48.2157 23.4482 47.2485 23.4482 46.0063L23.4779 39.216Z" fill="white"/>
<path d="M51.4336 39.216H55.7086V47.1945C55.7086 48.8295 54.6844 49.9931 52.6359 50.6756C51.6859 50.9898 50.5529 50.9996 49.2615 50.9996C48.1086 50.9996 47.0695 51.0193 46.1146 50.7738C43.8583 49.8802 42.7302 48.6871 42.7302 47.1945V39.216H47.0349V46.0456C47.0349 47.2878 47.2031 48.2157 49.2615 48.2157C51.3198 48.2157 51.4039 47.2485 51.4039 46.0063L51.4336 39.216Z" fill="white"/>
<path d="M28.6336 39.2995H41.8792V41.7544L35.4073 47.5235H41.8792V50.7345H28.6336V47.9752L34.9521 42.2896H28.6435L28.6336 39.3044V39.2995Z" fill="white"/>
<path d="M56.7675 50.7099V39.275H61.0128V43.5072L65.5896 39.275H70.9036L64.8078 44.8181L71.156 50.7099H65.4263L61.0573 46.6201L61.0969 50.7099H56.7675Z" fill="white"/>
<path d="M76 39.275V50.7099H71.7646V39.275H76Z" fill="white"/>
</svg>
