<svg width="32" height="32" viewBox="0 0 32 32" fill="none" xmlns="http://www.w3.org/2000/svg">
<path fill-rule="evenodd" clip-rule="evenodd" d="M26.9175 9.27744C26.2183 9.60897 25.4492 9.81022 24.6949 9.94284C25.0529 9.8798 25.5806 9.19993 25.7917 8.92537C26.1137 8.50605 26.3813 8.02837 26.5318 7.5124C26.551 7.47224 26.5657 7.42134 26.5274 7.39099C26.4793 7.37091 26.4477 7.38119 26.4094 7.40126C25.5677 7.87428 24.6966 8.21748 23.7699 8.46029C23.6933 8.48037 23.6363 8.46029 23.5878 8.40986C23.5112 8.31881 23.4386 8.23336 23.3571 8.16238C22.9674 7.81498 22.5493 7.54228 22.0785 7.34103C21.4595 7.07627 20.7835 6.96421 20.1169 7.00997C19.4685 7.05386 18.8321 7.24531 18.2567 7.56096C17.68 7.87661 17.1652 8.31601 16.7555 8.84645C16.3315 9.39465 16.0189 10.0423 15.8591 10.7287C15.7045 11.3913 15.7174 12.0469 15.8118 12.7165C15.8257 12.8276 15.8163 12.8426 15.7201 12.8276C12.0947 12.2617 9.08958 10.9015 6.64962 7.98634C6.54363 7.8598 6.48618 7.8598 6.39978 7.99615C5.33188 9.67388 5.8498 12.37 7.18357 13.6943C7.36125 13.8712 7.54384 14.0477 7.74068 14.2088C7.66898 14.2242 6.78143 14.1234 5.99097 13.6943C5.88454 13.6242 5.83154 13.6648 5.82219 13.7904C5.81239 13.9721 5.82754 14.1388 5.85069 14.3354C6.05554 16.0364 7.17956 17.6096 8.71773 18.2231C8.90032 18.3039 9.10205 18.3744 9.29889 18.4099C8.94841 18.4902 8.58769 18.5481 7.58258 18.4655C7.45744 18.4403 7.40935 18.5056 7.45745 18.6317C8.21273 20.7904 9.84308 21.4329 11.0642 21.7985C11.2281 21.8284 11.3915 21.8284 11.5554 21.869C11.5456 21.8844 11.5358 21.8844 11.526 21.8994C11.1212 22.5466 9.71705 23.0289 9.06286 23.2685C7.87383 23.7041 6.57881 23.9002 5.32208 23.7704C5.1208 23.7396 5.07849 23.7419 5.02416 23.7704C4.96894 23.8059 5.01703 23.8563 5.08161 23.9114C5.33678 24.0879 5.59641 24.2444 5.86093 24.3957C6.65897 24.8393 7.49129 25.1923 8.36147 25.4444C12.8557 26.7458 17.9183 25.7895 21.2925 22.2739C23.9427 19.5133 24.8712 15.7063 24.8712 11.8942C24.8712 11.7452 25.0395 11.6626 25.1397 11.5841C25.8291 11.0406 26.3769 10.3906 26.8912 9.66501C27.0066 9.50204 26.9999 9.35682 26.9999 9.29752V9.27744C26.9999 9.21627 27.0066 9.23448 26.9175 9.27744Z" fill="white"/>
</svg>
