<svg width="60" height="431" viewBox="0 0 60 431" fill="none" xmlns="http://www.w3.org/2000/svg">
<path d="M2.125 425.57L2.125 415.648L43.8828 401.039L2.125 386.43L2.125 376.508L59 397.055L59 405.023L2.125 425.57ZM2.125 430.922L2.125 421.039L42.8281 419.242L59 419.242L59 430.922L2.125 430.922ZM2.125 381.039L2.125 371.117L59 371.117L59 382.836L42.8281 382.836L2.125 381.039ZM16.7344 349.672L59 349.672L59 360.961L16.7344 360.961L16.7344 349.672ZM5.71875 361.664C4.07812 361.664 2.72396 361.091 1.65625 359.945C0.588538 358.799 0.0546841 357.263 0.054684 355.336C0.0546839 353.435 0.588538 351.911 1.65625 350.766C2.72395 349.594 4.07812 349.008 5.71875 349.008C7.35937 349.008 8.71354 349.594 9.78125 350.766C10.849 351.911 11.3828 353.435 11.3828 355.336C11.3828 357.263 10.849 358.799 9.78125 359.945C8.71354 361.091 7.35937 361.664 5.71875 361.664ZM25.7578 329.359L59 329.359L59 340.609L16.7344 340.609L16.7344 330.062L25.7578 329.359ZM36.3828 331L36.3828 334.047C33.2578 334.047 30.4453 333.643 27.9453 332.836C25.4193 332.029 23.2708 330.896 21.5 329.437C19.7031 327.979 18.3359 326.247 17.3984 324.242C16.4349 322.211 15.9531 319.945 15.9531 317.445C15.9531 315.466 16.2396 313.656 16.8125 312.016C17.3854 310.375 18.2969 308.969 19.5469 307.797C20.7969 306.599 22.4505 305.687 24.5078 305.062C26.5651 304.411 29.0781 304.086 32.0469 304.086L59 304.086L59 315.414L32.0078 315.414C30.1328 315.414 28.6745 315.674 27.6328 316.195C26.5911 316.716 25.862 317.484 25.4453 318.5C25.0026 319.49 24.7812 320.714 24.7812 322.172C24.7812 323.682 25.0807 324.997 25.6797 326.117C26.2786 327.211 27.112 328.122 28.1797 328.852C29.2213 329.555 30.4453 330.089 31.8516 330.453C33.2578 330.818 34.7682 331 36.3828 331ZM50.9922 278.07C50.9922 276.69 50.7318 275.466 50.2109 274.398C49.6641 273.331 48.9088 272.497 47.9453 271.898C46.9557 271.273 45.7969 270.948 44.4687 270.922L44.4687 260.336C47.4375 260.362 50.0807 261.156 52.3984 262.719C54.6901 264.281 56.5 266.378 57.8281 269.008C59.1302 271.638 59.7812 274.581 59.7812 277.836C59.7812 281.117 59.2344 283.982 58.1406 286.43C57.0469 288.852 55.5365 290.87 53.6094 292.484C51.6562 294.099 49.3906 295.31 46.8125 296.117C44.2083 296.924 41.4219 297.328 38.4531 297.328L37.3203 297.328C34.3255 297.328 31.5391 296.924 28.9609 296.117C26.3568 295.31 24.0911 294.099 22.1641 292.484C20.2109 290.87 18.6875 288.852 17.5937 286.43C16.5 284.008 15.9531 281.169 15.9531 277.914C15.9531 274.451 16.6172 271.417 17.9453 268.812C19.2734 266.182 21.1745 264.125 23.6484 262.641C26.0963 261.13 29 260.362 32.3594 260.336L32.3594 270.922C30.9531 270.948 29.6771 271.247 28.5312 271.82C27.3854 272.367 26.474 273.174 25.7969 274.242C25.0937 275.284 24.7422 276.573 24.7422 278.109C24.7422 279.75 25.0937 281.091 25.7969 282.133C26.474 283.174 27.4115 283.982 28.6094 284.555C29.7812 285.128 31.1224 285.531 32.6328 285.766C34.1172 285.974 35.6797 286.078 37.3203 286.078L38.4531 286.078C40.0937 286.078 41.6693 285.974 43.1797 285.766C44.6901 285.557 46.0312 285.167 47.2031 284.594C48.375 283.995 49.2995 283.174 49.9766 282.133C50.6536 281.091 50.9922 279.737 50.9922 278.07ZM49.4687 231L30.6406 231C29.2864 231 28.1276 231.221 27.1641 231.664C26.1745 232.107 25.4062 232.797 24.8594 233.734C24.3125 234.646 24.0391 235.831 24.0391 237.289C24.0391 238.539 24.2604 239.62 24.7031 240.531C25.1198 241.443 25.7318 242.146 26.5391 242.641C27.3203 243.135 28.2448 243.383 29.3125 243.383L29.3125 254.633C27.5156 254.633 25.8099 254.216 24.1953 253.383C22.5807 252.549 21.1615 251.339 19.9375 249.75C18.6875 248.161 17.7109 246.273 17.0078 244.086C16.3047 241.872 15.9531 239.398 15.9531 236.664C15.9531 233.383 16.5 230.466 17.5937 227.914C18.6875 225.362 20.3281 223.357 22.5156 221.898C24.7031 220.414 27.4375 219.672 30.7187 219.672L48.8047 219.672C51.1224 219.672 53.0234 219.529 54.5078 219.242C55.9661 218.956 57.2422 218.539 58.3359 217.992L59 217.992L59 229.359C57.8542 229.906 56.4219 230.323 54.7031 230.609C52.9583 230.87 51.2135 231 49.4687 231ZM33.2578 229.516L39.625 229.437L39.625 235.727C39.625 237.211 39.7943 238.5 40.1328 239.594C40.4713 240.687 40.9531 241.586 41.5781 242.289C42.1771 242.992 42.8802 243.513 43.6875 243.852C44.4948 244.164 45.3802 244.32 46.3437 244.32C47.3073 244.32 48.1797 244.099 48.9609 243.656C49.7161 243.214 50.3151 242.576 50.7578 241.742C51.1745 240.909 51.3828 239.932 51.3828 238.812C51.3828 237.12 51.0443 235.648 50.3672 234.398C49.6901 233.148 48.8568 232.185 47.8672 231.508C46.8776 230.805 45.9401 230.44 45.0547 230.414L49.8203 227.445C50.888 227.862 51.9948 228.435 53.1406 229.164C54.2864 229.867 55.3672 230.766 56.3828 231.859C57.3724 232.953 58.1927 234.268 58.8437 235.805C59.4687 237.341 59.7812 239.164 59.7812 241.273C59.7812 243.956 59.2474 246.391 58.1797 248.578C57.0859 250.74 55.5885 252.458 53.6875 253.734C51.7604 254.984 49.5729 255.609 47.125 255.609C44.9115 255.609 42.9453 255.193 41.2266 254.359C39.5078 253.526 38.0625 252.302 36.8906 250.687C35.6927 249.047 34.7943 247.003 34.1953 244.555C33.5703 242.107 33.2578 239.268 33.2578 236.039L33.2578 229.516ZM33.1016 180.961L30.9531 189.945L2.12499 186.703L2.12499 154.75L11.2266 154.75L11.2266 177.445L23.8437 178.852C23.401 178.096 22.9323 176.951 22.4375 175.414C21.9167 173.878 21.6562 172.159 21.6562 170.258C21.6562 167.497 22.0859 165.049 22.9453 162.914C23.8047 160.779 25.0547 158.969 26.6953 157.484C28.3359 155.974 30.3411 154.828 32.7109 154.047C35.0807 153.266 37.763 152.875 40.7578 152.875C43.2838 152.875 45.6927 153.266 47.9844 154.047C50.25 154.828 52.2812 156.013 54.0781 157.602C55.8489 159.19 57.2422 161.182 58.2578 163.578C59.2734 165.974 59.7812 168.812 59.7812 172.094C59.7812 174.542 59.4167 176.911 58.6875 179.203C57.9583 181.469 56.8776 183.513 55.4453 185.336C54.013 187.133 52.2812 188.578 50.25 189.672C48.1927 190.74 45.8489 191.299 43.2187 191.352L43.2187 180.18C44.8333 180.023 46.2266 179.607 47.3984 178.93C48.5443 178.227 49.4297 177.302 50.0547 176.156C50.6797 175.01 50.9922 173.669 50.9922 172.133C50.9922 170.701 50.7187 169.477 50.1719 168.461C49.625 167.445 48.8698 166.625 47.9062 166C46.9167 165.375 45.7708 164.919 44.4687 164.633C43.1406 164.32 41.7083 164.164 40.1719 164.164C38.6354 164.164 37.2422 164.346 35.9922 164.711C34.7422 165.076 33.6614 165.635 32.75 166.391C31.8385 167.146 31.1354 168.109 30.6406 169.281C30.1458 170.427 29.8984 171.768 29.8984 173.305C29.8984 175.388 30.2239 177.003 30.875 178.148C31.526 179.268 32.2682 180.206 33.1016 180.961ZM25.5625 107.328L35.4062 107.328C39.6771 107.328 43.362 107.784 46.4609 108.695C49.5338 109.607 52.0599 110.922 54.039 112.641C55.9922 114.333 57.4375 116.352 58.375 118.695C59.3125 121.039 59.7812 123.643 59.7812 126.508C59.7812 128.799 59.4948 130.935 58.9219 132.914C58.3229 134.893 57.3984 136.677 56.1484 138.266C54.8984 139.828 53.3229 141.182 51.4219 142.328C49.4948 143.448 47.2031 144.307 44.5469 144.906C41.8906 145.505 38.8437 145.805 35.4062 145.805L25.5625 145.805C21.2917 145.805 17.6328 145.349 14.5859 144.437C11.513 143.5 8.99999 142.185 7.04686 140.492C5.09374 138.773 3.66145 136.742 2.74999 134.398C1.81249 132.055 1.34374 129.451 1.34374 126.586C1.34374 124.294 1.64322 122.172 2.24217 120.219C2.81509 118.24 3.71353 116.456 4.93749 114.867C6.16144 113.279 7.73697 111.924 9.66405 110.805C11.5651 109.685 13.8437 108.826 16.5 108.227C19.1302 107.628 22.151 107.328 25.5625 107.328ZM36.8906 118.617L24.039 118.617C21.9818 118.617 20.1849 118.734 18.6484 118.969C17.112 119.177 15.8099 119.503 14.7422 119.945C13.6484 120.388 12.763 120.935 12.0859 121.586C11.4088 122.237 10.914 122.979 10.6015 123.812C10.289 124.646 10.1328 125.57 10.1328 126.586C10.1328 127.862 10.3802 128.995 10.875 129.984C11.3698 130.948 12.164 131.768 13.2578 132.445C14.3255 133.122 15.7578 133.643 17.5547 134.008C19.3255 134.346 21.487 134.516 24.039 134.516L36.8906 134.516C38.9479 134.516 40.7578 134.411 42.3203 134.203C43.8828 133.969 45.2239 133.63 46.3437 133.187C47.4375 132.719 48.3359 132.172 49.039 131.547C49.7161 130.896 50.2109 130.154 50.5234 129.32C50.8359 128.461 50.9922 127.523 50.9922 126.508C50.9922 125.258 50.7448 124.151 50.25 123.187C49.7292 122.198 48.9219 121.365 47.8281 120.687C46.7083 119.984 45.25 119.464 43.4531 119.125C41.6562 118.786 39.4687 118.617 36.8906 118.617ZM25.5625 61.3906L35.4062 61.3906C39.6771 61.3906 43.362 61.8464 46.4609 62.7578C49.5338 63.6693 52.0599 64.9844 54.039 66.7031C55.9922 68.3958 57.4375 70.4141 58.375 72.7578C59.3125 75.1016 59.7812 77.7057 59.7812 80.5703C59.7812 82.862 59.4948 84.9974 58.9219 86.9766C58.3229 88.9557 57.3984 90.7396 56.1484 92.3281C54.8984 93.8906 53.3229 95.2448 51.4219 96.3906C49.4948 97.5104 47.2031 98.3698 44.5469 98.9687C41.8906 99.5677 38.8437 99.8672 35.4062 99.8672L25.5625 99.8672C21.2917 99.8672 17.6328 99.4115 14.5859 98.5C11.513 97.5625 8.99999 96.2474 7.04686 94.5547C5.09373 92.8359 3.66144 90.8047 2.74998 88.4609C1.81248 86.1172 1.34373 83.513 1.34373 80.6484C1.34373 78.3568 1.64321 76.2344 2.24217 74.2812C2.81509 72.3021 3.71353 70.5182 4.93748 68.9297C6.16144 67.3411 7.73696 65.987 9.66405 64.8672C11.5651 63.7474 13.8437 62.888 16.5 62.2891C19.1302 61.6901 22.151 61.3906 25.5625 61.3906ZM36.8906 72.6797L24.039 72.6797C21.9818 72.6797 20.1849 72.7969 18.6484 73.0312C17.112 73.2396 15.8099 73.5651 14.7422 74.0078C13.6484 74.4505 12.763 74.9974 12.0859 75.6484C11.4088 76.2995 10.914 77.0417 10.6015 77.875C10.289 78.7083 10.1328 79.6328 10.1328 80.6484C10.1328 81.9245 10.3802 83.0573 10.875 84.0469C11.3698 85.0104 12.164 85.8307 13.2578 86.5078C14.3255 87.1849 15.7578 87.7057 17.5547 88.0703C19.3255 88.4089 21.487 88.5781 24.039 88.5781L36.8906 88.5781C38.9479 88.5781 40.7578 88.474 42.3203 88.2656C43.8828 88.0312 45.2239 87.6927 46.3437 87.25C47.4375 86.7812 48.3359 86.2344 49.039 85.6094C49.7161 84.9583 50.2109 84.2161 50.5234 83.3828C50.8359 82.5234 50.9922 81.5859 50.9922 80.5703C50.9922 79.3203 50.7448 78.2135 50.25 77.25C49.7292 76.2604 48.9219 75.4271 47.8281 74.75C46.7083 74.0469 45.25 73.526 43.4531 73.1875C41.6562 72.849 39.4687 72.6797 36.8906 72.6797ZM48.0625 41.1953L16.7344 32.4062L16.7344 25.2578L29.039 27.5625L59 36.3516L59 42.3281L48.0625 41.1953ZM16.7344 45.6484L48.0234 39.3594L59 38.7734L59 45.8047L16.7344 56.5078L16.7344 45.6484ZM47.5156 17.2109L16.7344 11.0781L16.7344 0.179686L59 10.8828L59 17.875L47.5156 17.2109ZM16.7344 24.2812L47.8281 15.5312L59 14.3203L59 20.3359L29.0781 29.125L16.7344 31.3516L16.7344 24.2812Z" fill="white"/>
</svg>
